# xmcd
#
# Track frame offsets:
#	150
#	30380
#	52467
#	75287
#	97805
#	113175
#	135725
#	161777
#	179632
#	204570
#
# Disc length: 3081 seconds
#
# Revision: 2
# Processed by: cddbd v1.5.2PL0 Copyright (c) Steve Scherf et al.
# Submitted via: EasyCDDAExtractor 15.3.0.1
#
DISCID=840c070a
DTITLE=Rocio Jurado - Palabra De Honor
DYEAR=1995
DGENRE=Latin
TTITLE0=Blanca Paloma (Interpretado A Duo Con Juan Pardo Y La Escolania De El 
TTITLE0=Escorial)
TTITLE1=Dejala Correr
TTITLE2=Amor, Amigo Amor
TTITLE3=Arriesgate A Mi
TTITLE4=Yo Te Siento
TTITLE5=Los Ojos Negros
TTITLE6=Africa
TTITLE7=Palabra De Honor
TTITLE8=La Septima Ola
TTITLE9=Simplemente Feliz
EXTD=
EXTT0=
EXTT1=
EXTT2=
EXTT3=
EXTT4=
EXTT5=
EXTT6=
EXTT7=
EXTT8=
EXTT9=
PLAYORDER=
